STARTFONT 2.1
FONT -HP-Mincho-Bold-R-Normal--22-159-100-100-C-110-JISX0201.1976-0
SIZE 15 100 100
FONTBOUNDINGBOX 11 22 0 -2

STARTPROPERTIES 23
FONTNAME_REGISTRY ""
FOUNDRY "HP"
FAMILY_NAME "Mincho"
WEIGHT_NAME "Bold"
SLANT "R"
SETWIDTH_NAME "Normal"
ADD_STYLE_NAME ""
PIXEL_SIZE 22
POINT_SIZE 159
RESOLUTION_X 100
RESOLUTION_Y 100
SPACING "C"
AVERAGE_WIDTH 110
CHARSET_REGISTRY "JISX0201.1976"
CHARSET_ENCODING "0"
COPYRIGHT "Copyright (c) 1994 Hewlett-Packard Company. Copyright 1994 by Bridge Inc."
_HP_ASXVERSION "@(#) ASX 3.00 $Revision: 13.9 $ minB22a"
WEIGHT 10
X_HEIGHT 20
QUAD_WIDTH 11
DEFAULT_CHAR 32
FONT_DESCENT 2
FONT_ASCENT 20
ENDPROPERTIES

CHARS 256

STARTCHAR gly0
ENCODING 0
SWIDTH 480 0
DWIDTH 11 0
BBX 11 22 0 -2
BITMAP
0000
0000
6E00
2400
3400
3400
2C00
2C00
2400
7600
0000
0000
0700
0200
0200
0200
0200
0200
0240
07C0
0000
0000
ENDCHAR

STARTCHAR gly1
ENCODING 1
SWIDTH 480 0
DWIDTH 11 0
BBX 11 22 0 -2
BITMAP
0000
0000
1C00
2400
2400
1000
0800
2400
2400
3800
0000
0000
0DC0
0480
0480
0780
0480
0480
0480
0DC0
0000
0000
ENDCHAR

STARTCHAR gly2
ENCODING 2
SWIDTH 480 0
DWIDTH 11 0
BBX 11 22 0 -2
BITMAP
0000
0000
1C00
2400
2400
1000
0800
2400
2400
3800
0000
0000
06C0
0280
0280
0100
0100
0280
0280
06C0
0000
0000
ENDCHAR

STARTCHAR gly3
ENCODING 3
SWIDTH 480 0
DWIDTH 11 0
BBX 11 22 0 -2
BITMAP
0000
0000
3E00
1200
1000
1C00
1000
1000
1200
3E00
0000
0000
06C0
0280
0280
0100
0100
0280
0280
06C0
0000
0000
ENDCHAR

STARTCHAR gly4
ENCODING 4
SWIDTH 480 0
DWIDTH 11 0
BBX 11 22 0 -2
BITMAP
0000
0000
3E00
1200
1000
1C00
1000
1000
1200
3E00
0000
0000
07C0
0540
0100
0100
0100
0100
0100
0380
0000
0000
ENDCHAR

STARTCHAR gly5
ENCODING 5
SWIDTH 480 0
DWIDTH 11 0
BBX 11 22 0 -2
BITMAP
0000
0000
3E00
1200
1000
1C00
1000
1000
1200
3E00
0000
0000
0380
0440
0440
0440
0440
0540
04C0
03C0
0000
0000
ENDCHAR

STARTCHAR gly6
ENCODING 6
SWIDTH 480 0
DWIDTH 11 0
BBX 11 22 0 -2
BITMAP
0000
0000
1800
1800
1800
2400
2400
3C00
2400
6E00
0000
0000
06C0
0480
0500
0600
0500
0500
0480
06C0
0000
0000
ENDCHAR

STARTCHAR gly7
ENCODING 7
SWIDTH 480 0
DWIDTH 11 0
BBX 11 22 0 -2
BITMAP
0000
0000
0000
0600
0600
0F00
0900
1080
1080
1080
1080
1080
1080
1080
1080
FFE0
0900
0F00
0000
0000
0000
0000
ENDCHAR

STARTCHAR gly8
ENCODING 8
SWIDTH 480 0
DWIDTH 11 0
BBX 11 22 0 -2
BITMAP
0000
0000
3C00
1200
1200
1C00
1200
1200
1200
3C00
0000
0000
0380
0480
0480
0200
0100
0480
0480
0700
0000
0000
ENDCHAR

STARTCHAR gly9
ENCODING 9
SWIDTH 480 0
DWIDTH 11 0
BBX 11 22 0 -2
BITMAP
0000
0000
6E00
2400
2400
3C00
2400
2400
2400
6E00
0000
0000
07C0
0540
0100
0100
0100
0100
0100
0380
0000
0000
ENDCHAR

STARTCHAR gly10
ENCODING 10
SWIDTH 480 0
DWIDTH 11 0
BBX 11 22 0 -2
BITMAP
0000
0000
3800
1000
1000
1000
1000
1000
1200
3E00
0000
0000
07C0
0240
0200
0380
0200
0200
0200
0700
0000
0000
ENDCHAR

STARTCHAR gly11
ENCODING 11
SWIDTH 480 0
DWIDTH 11 0
BBX 11 22 0 -2
BITMAP
0000
0000
7700
2200
2200
1400
1400
1400
0800
0800
0000
0000
07C0
0540
0100
0100
0100
0100
0100
0380
0000
0000
ENDCHAR

STARTCHAR gly12
ENCODING 12
SWIDTH 480 0
DWIDTH 11 0
BBX 11 22 0 -2
BITMAP
0000
0000
3E00
1200
1000
1C00
1000
1000
1000
3800
0000
0000
07C0
0240
0200
0380
0200
0200
0200
0700
0000
0000
ENDCHAR

STARTCHAR gly13
ENCODING 13
SWIDTH 480 0
DWIDTH 11 0
BBX 11 22 0 -2
BITMAP
0000
0000
1C00
2400
2400
2000
2000
2400
2400
1800
0000
0000
0F00
0480
0480
0480
0700
0480
0480
0EC0
0000
0000
ENDCHAR

STARTCHAR gly14
ENCODING 14
SWIDTH 480 0
DWIDTH 11 0
BBX 11 22 0 -2
BITMAP
0000
0000
1C00
2400
2400
1000
0800
2400
2400
3800
0000
0000
0380
0440
0440
0440
0440
0440
0440
0380
0000
0000
ENDCHAR

STARTCHAR gly15
ENCODING 15
SWIDTH 480 0
DWIDTH 11 0
BBX 11 22 0 -2
BITMAP
0000
0000
1C00
2400
2400
1000
0800
2400
2400
3800
0000
0000
0380
0100
0100
0100
0100
0100
0100
0380
0000
0000
ENDCHAR

STARTCHAR gly16
ENCODING 16
SWIDTH 480 0
DWIDTH 11 0
BBX 11 22 0 -2
BITMAP
0000
0000
3C00
1200
1200
1200
1200
1200
1200
3C00
0000
0000
0700
0200
0200
0200
0200
0200
0240
07C0
0000
0000
ENDCHAR

STARTCHAR gly17
ENCODING 17
SWIDTH 480 0
DWIDTH 11 0
BBX 11 22 0 -2
BITMAP
0000
0000
3C00
1200
1200
1200
1200
1200
1200
3C00
0000
0000
0100
0300
0100
0100
0100
0100
0100
0380
0000
0000
ENDCHAR

STARTCHAR gly18
ENCODING 18
SWIDTH 480 0
DWIDTH 11 0
BBX 11 22 0 -2
BITMAP
0000
0000
3C00
1200
1200
1200
1200
1200
1200
3C00
0000
0000
0300
0480
0480
0080
0100
0200
0480
0780
0000
0000
ENDCHAR

STARTCHAR gly19
ENCODING 19
SWIDTH 480 0
DWIDTH 11 0
BBX 11 22 0 -2
BITMAP
0000
0000
3C00
1200
1200
1200
1200
1200
1200
3C00
0000
0000
0300
0480
0080
0300
0080
0480
0480
0300
0000
0000
ENDCHAR

STARTCHAR gly20
ENCODING 20
SWIDTH 480 0
DWIDTH 11 0
BBX 11 22 0 -2
BITMAP
0000
0000
3C00
1200
1200
1200
1200
1200
1200
3C00
0000
0000
0080
0180
0180
0280
0280
07C0
0080
01C0
0000
0000
ENDCHAR

STARTCHAR gly21
ENCODING 21
SWIDTH 480 0
DWIDTH 11 0
BBX 11 22 0 -2
BITMAP
0000
0000
6E00
2400
3400
3400
2C00
2C00
2400
7600
0000
0000
0EC0
0480
0500
0600
0500
0500
0480
0EE0
0000
0000
ENDCHAR

STARTCHAR gly22
ENCODING 22
SWIDTH 480 0
DWIDTH 11 0
BBX 11 22 0 -2
BITMAP
0000
0000
1C00
2400
2400
1000
0800
2400
2400
3800
0000
0000
0EE0
0440
0280
0280
0100
0100
0100
0380
0000
0000
ENDCHAR

STARTCHAR gly23
ENCODING 23
SWIDTH 480 0
DWIDTH 11 0
BBX 11 22 0 -2
BITMAP
0000
0000
3E00
1200
1000
1C00
1000
1000
1200
3E00
0000
0000
0780
0240
0240
0380
0240
0240
0240
0780
0000
0000
ENDCHAR

STARTCHAR gly24
ENCODING 24
SWIDTH 480 0
DWIDTH 11 0
BBX 11 22 0 -2
BITMAP
0000
0000
1C00
2400
2400
2000
2000
2400
2400
1800
0000
0000
0DC0
0480
0680
0680
0580
0580
0480
0EC0
0000
0000
ENDCHAR

STARTCHAR gly25
ENCODING 25
SWIDTH 480 0
DWIDTH 11 0
BBX 11 22 0 -2
BITMAP
0000
0000
3E00
1200
1000
1C00
1000
1000
1200
3E00
0000
0000
0440
0440
06C0
06C0
0540
0540
0440
0EE0
0000
0000
ENDCHAR

STARTCHAR gly26
ENCODING 26
SWIDTH 480 0
DWIDTH 11 0
BBX 11 22 0 -2
BITMAP
0000
0000
1C00
2400
2400
1000
0800
2400
2400
3800
0000
0000
0780
0240
0240
0380
0240
0240
0240
0780
0000
0000
ENDCHAR

STARTCHAR gly27
ENCODING 27
SWIDTH 480 0
DWIDTH 11 0
BBX 11 22 0 -2
BITMAP
0000
0000
3E00
1200
1000
1C00
1000
1000
1200
3E00
0000
0000
0380
0480
0480
0400
0400
0480
0480
0300
0000
0000
ENDCHAR

STARTCHAR gly28
ENCODING 28
SWIDTH 480 0
DWIDTH 11 0
BBX 11 22 0 -2
BITMAP
0000
0000
3E00
1200
1000
1C00
1000
1000
1000
3800
0000
0000
0380
0480
0480
0200
0100
0480
0480
0700
0000
0000
ENDCHAR

STARTCHAR gly29
ENCODING 29
SWIDTH 480 0
DWIDTH 11 0
BBX 11 22 0 -2
BITMAP
0000
0000
1C00
2400
2000
2000
2E00
2400
2400
1C00
0000
0000
0380
0480
0480
0200
0100
0480
0480
0700
0000
0000
ENDCHAR

STARTCHAR gly30
ENCODING 30
SWIDTH 480 0
DWIDTH 11 0
BBX 11 22 0 -2
BITMAP
0000
0000
7800
2400
2400
2400
3800
2400
2400
7600
0000
0000
0380
0480
0480
0200
0100
0480
0480
0700
0000
0000
ENDCHAR

STARTCHAR gly31
ENCODING 31
SWIDTH 480 0
DWIDTH 11 0
BBX 11 22 0 -2
BITMAP
0000
0000
6E00
2400
2400
2400
2400
2400
2400
1800
0000
0000
0380
0480
0480
0200
0100
0480
0480
0700
0000
0000
ENDCHAR

STARTCHAR jisx0201_20
ENCODING 32
SWIDTH 480 0
DWIDTH 11 0
BBX 11 22 0 -2
BITMAP
0000
0000
0000
0000
0000
0000
0000
0000
0000
0000
0000
0000
0000
0000
0000
0000
0000
0000
0000
0000
0000
0000
ENDCHAR

STARTCHAR jisx0201_21
ENCODING 33
SWIDTH 480 0
DWIDTH 11 0
BBX 11 22 0 -2
BITMAP
0000
0600
0F00
0F00
0F00
0F00
0F00
0F00
0F00
0F00
0F00
0600
0600
0600
0600
0000
0F00
0F00
0F00
0F00
0000
0000
ENDCHAR

STARTCHAR jisx0201_22
ENCODING 34
SWIDTH 480 0
DWIDTH 11 0
BBX 11 22 0 -2
BITMAP
7780
7780
7F80
3B80
7700
6600
0000
0000
0000
0000
0000
0000
0000
0000
0000
0000
0000
0000
0000
0000
0000
0000
ENDCHAR

STARTCHAR jisx0201_23
ENCODING 35
SWIDTH 480 0
DWIDTH 11 0
BBX 11 22 0 -2
BITMAP
0000
0CC0
0CC0
0CC0
0CC0
0CC0
7FE0
7FE0
7FE0
1980
1980
1980
FFE0
FFE0
FFE0
3300
3300
3300
3300
3300
0000
0000
ENDCHAR

STARTCHAR jisx0201_24
ENCODING 36
SWIDTH 480 0
DWIDTH 11 0
BBX 11 22 0 -2
BITMAP
0C00
3D80
7F80
EBC0
EDC0
ECC0
ECC0
EC00
FC00
7E00
3F80
0FC0
0BE0
0DE0
CCE0
CCE0
ECE0
FDE0
7FC0
5F80
0C00
0C00
ENDCHAR

STARTCHAR jisx0201_25
ENCODING 37
SWIDTH 480 0
DWIDTH 11 0
BBX 11 22 0 -2
BITMAP
0000
78C0
FCC0
DDC0
DDC0
DD80
DF80
DB80
DF00
FF00
76E0
0DE0
0F60
1B60
1B60
1B60
3B60
3B60
33E0
31E0
0000
0000
ENDCHAR

STARTCHAR jisx0201_26
ENCODING 38
SWIDTH 480 0
DWIDTH 11 0
BBX 11 22 0 -2
BITMAP
0000
3E00
7F00
7700
7700
7700
7700
3E00
3E00
1C00
7DE0
6FE0
EEC0
E6C0
E7C0
E3C0
E3E0
F1A0
7FE0
3EE0
0000
0000
ENDCHAR

STARTCHAR jisx0201_27
ENCODING 39
SWIDTH 480 0
DWIDTH 11 0
BBX 11 22 0 -2
BITMAP
1E00
1E00
1E00
0E00
1C00
1800
0000
0000
0000
0000
0000
0000
0000
0000
0000
0000
0000
0000
0000
0000
0000
0000
ENDCHAR

STARTCHAR jisx0201_28
ENCODING 40
SWIDTH 480 0
DWIDTH 11 0
BBX 11 22 0 -2
BITMAP
01E0
03C0
0380
0780
0700
0700
0F00
0E00
0E00
0E00
0E00
0E00
0E00
0E00
0F00
0700
0700
0780
0380
03C0
01E0
00E0
ENDCHAR

STARTCHAR jisx0201_29
ENCODING 41
SWIDTH 480 0
DWIDTH 11 0
BBX 11 22 0 -2
BITMAP
7800
3C00
1C00
1E00
0E00
0E00
0F00
0700
0700
0700
0700
0700
0700
0700
0F00
0E00
0E00
1E00
1C00
3C00
7800
7000
ENDCHAR

STARTCHAR jisx0201_2A
ENCODING 42
SWIDTH 480 0
DWIDTH 11 0
BBX 11 22 0 -2
BITMAP
0000
0000
0000
0E00
0E00
0E00
EEE0
EFE0
FDE0
7FC0
1F00
7FC0
FFE0
EDE0
EEE0
0E00
0E00
0E00
0000
0000
0000
0000
ENDCHAR

STARTCHAR jisx0201_2B
ENCODING 43
SWIDTH 480 0
DWIDTH 11 0
BBX 11 22 0 -2
BITMAP
0000
0000
0000
0000
0E00
0E00
0E00
0E00
0E00
FFE0
FFE0
FFE0
0E00
0E00
0E00
0E00
0E00
0000
0000
0000
0000
0000
ENDCHAR

STARTCHAR jisx0201_2C
ENCODING 44
SWIDTH 480 0
DWIDTH 11 0
BBX 11 22 0 -2
BITMAP
0000
0000
0000
0000
0000
0000
0000
0000
0000
0000
0000
0000
0000
0000
0000
0C00
1E00
1E00
1E00
0E00
1C00
1800
ENDCHAR

STARTCHAR jisx0201_2D
ENCODING 45
SWIDTH 480 0
DWIDTH 11 0
BBX 11 22 0 -2
BITMAP
0000
0000
0000
0000
0000
0000
0000
0000
0000
FFE0
FFE0
FFE0
0000
0000
0000
0000
0000
0000
0000
0000
0000
0000
ENDCHAR

STARTCHAR jisx0201_2E
ENCODING 46
SWIDTH 480 0
DWIDTH 11 0
BBX 11 22 0 -2
BITMAP
0000
0000
0000
0000
0000
0000
0000
0000
0000
0000
0000
0000
0000
0000
0000
0000
0E00
1F00
1F00
0E00
0000
0000
ENDCHAR

STARTCHAR jisx0201_2F
ENCODING 47
SWIDTH 480 0
DWIDTH 11 0
BBX 11 22 0 -2
BITMAP
0060
0060
00E0
00E0
01C0
01C0
0380
0380
0700
0700
0E00
0E00
1C00
1C00
3800
3800
7000
7000
E000
E000
C000
C000
ENDCHAR

STARTCHAR jisx0201_30
ENCODING 48
SWIDTH 480 0
DWIDTH 11 0
BBX 11 22 0 -2
BITMAP
0000
1F80
3FC0
79E0
70E0
70E0
70E0
70E0
70E0
70E0
70E0
70E0
70E0
70E0
70E0
70E0
70E0
79E0
3FC0
1F80
0000
0000
ENDCHAR

STARTCHAR jisx0201_31
ENCODING 49
SWIDTH 480 0
DWIDTH 11 0
BBX 11 22 0 -2
BITMAP
0000
0E00
1E00
3E00
7E00
6E00
0E00
0E00
0E00
0E00
0E00
0E00
0E00
0E00
0E00
0E00
0E00
0E00
7FC0
7FC0
0000
0000
ENDCHAR

STARTCHAR jisx0201_32
ENCODING 50
SWIDTH 480 0
DWIDTH 11 0
BBX 11 22 0 -2
BITMAP
0000
1F00
3F80
7BC0
71C0
71C0
71C0
71C0
03C0
0380
0780
0F00
1E00
1C00
38C0
38C0
70C0
7FC0
7FC0
7FC0
0000
0000
ENDCHAR

STARTCHAR jisx0201_33
ENCODING 51
SWIDTH 480 0
DWIDTH 11 0
BBX 11 22 0 -2
BITMAP
0000
1F00
3F80
7BC0
71C0
71C0
71C0
01C0
03C0
1F80
1FC0
01E0
00E0
00E0
70E0
70E0
70E0
79E0
3FC0
1F80
0000
0000
ENDCHAR

STARTCHAR jisx0201_34
ENCODING 52
SWIDTH 480 0
DWIDTH 11 0
BBX 11 22 0 -2
BITMAP
0000
0380
0380
0780
0780
0F80
0F80
1B80
1B80
3B80
3B80
7380
7380
E380
FFE0
FFE0
0380
0380
0FE0
0FE0
0000
0000
ENDCHAR

STARTCHAR jisx0201_35
ENCODING 53
SWIDTH 480 0
DWIDTH 11 0
BBX 11 22 0 -2
BITMAP
0000
3FE0
3FE0
3FC0
3000
3000
3000
3F80
3FC0
39E0
30E0
30E0
00E0
00E0
70E0
70E0
70E0
79E0
3FC0
1F80
0000
0000
ENDCHAR

STARTCHAR jisx0201_36
ENCODING 54
SWIDTH 480 0
DWIDTH 11 0
BBX 11 22 0 -2
BITMAP
0000
1F80
3FC0
79E0
70E0
70E0
7000
7F80
7FC0
79E0
70E0
70E0
70E0
70E0
70E0
70E0
70E0
79E0
3FC0
1F80
0000
0000
ENDCHAR

STARTCHAR jisx0201_37
ENCODING 55
SWIDTH 480 0
DWIDTH 11 0
BBX 11 22 0 -2
BITMAP
0000
3FE0
3FE0
7FE0
70C0
61C0
6380
0380
0780
0700
0700
0700
0F00
0E00
0E00
0E00
0E00
0E00
0E00
0E00
0000
0000
ENDCHAR

STARTCHAR jisx0201_38
ENCODING 56
SWIDTH 480 0
DWIDTH 11 0
BBX 11 22 0 -2
BITMAP
0000
1F00
3F80
79C0
70C0
70C0
70C0
79C0
3F80
1F00
3FC0
7BE0
71E0
60E0
60E0
60E0
70E0
79E0
3FC0
1F80
0000
0000
ENDCHAR

STARTCHAR jisx0201_39
ENCODING 57
SWIDTH 480 0
DWIDTH 11 0
BBX 11 22 0 -2
BITMAP
0000
1F80
3FC0
79E0
70E0
70E0
70E0
70E0
70E0
70E0
70E0
79E0
3FE0
1FE0
00E0
70E0
70E0
79E0
3FC0
1F80
0000
0000
ENDCHAR

STARTCHAR jisx0201_3A
ENCODING 58
SWIDTH 480 0
DWIDTH 11 0
BBX 11 22 0 -2
BITMAP
0000
0000
0000
0000
0000
0E00
1F00
1F00
0E00
0000
0000
0000
0000
0000
0000
0E00
1F00
1F00
0E00
0000
0000
0000
ENDCHAR

STARTCHAR jisx0201_3B
ENCODING 59
SWIDTH 480 0
DWIDTH 11 0
BBX 11 22 0 -2
BITMAP
0000
0000
0000
0000
0000
0E00
1F00
1F00
0E00
0000
0000
0000
0000
0000
0000
0E00
1F00
1F00
0F00
0600
1C00
1800
ENDCHAR

STARTCHAR jisx0201_3C
ENCODING 60
SWIDTH 480 0
DWIDTH 11 0
BBX 11 22 0 -2
BITMAP
0000
0000
00C0
01C0
03C0
0780
0F00
1E00
3C00
7800
7000
7800
3C00
1E00
0F00
0780
03C0
01C0
00C0
0000
0000
0000
ENDCHAR

STARTCHAR jisx0201_3D
ENCODING 61
SWIDTH 480 0
DWIDTH 11 0
BBX 11 22 0 -2
BITMAP
0000
0000
0000
0000
0000
7FE0
7FE0
7FE0
0000
0000
0000
0000
7FE0
7FE0
7FE0
0000
0000
0000
0000
0000
0000
0000
ENDCHAR

STARTCHAR jisx0201_3E
ENCODING 62
SWIDTH 480 0
DWIDTH 11 0
BBX 11 22 0 -2
BITMAP
0000
0000
6000
7000
7800
3C00
1E00
0F00
0780
03C0
01C0
03C0
0780
0F00
1E00
3C00
7800
7000
6000
0000
0000
0000
ENDCHAR

STARTCHAR jisx0201_3F
ENCODING 63
SWIDTH 480 0
DWIDTH 11 0
BBX 11 22 0 -2
BITMAP
0000
1F80
3FC0
79E0
70E0
70E0
70E0
71C0
03C0
0380
0700
0700
0600
0600
0600
0000
0700
0F80
0F80
0700
0000
0000
ENDCHAR

STARTCHAR jisx0201_40
ENCODING 64
SWIDTH 480 0
DWIDTH 11 0
BBX 11 22 0 -2
BITMAP
0000
0F00
3FC0
79E0
6060
EEE0
DFA0
DDA0
FDA0
B9A0
B9A0
BBA0
BBA0
BBA0
FFE0
DEE0
6000
79E0
3FC0
0F00
0000
0000
ENDCHAR

STARTCHAR jisx0201_41
ENCODING 65
SWIDTH 480 0
DWIDTH 11 0
BBX 11 22 0 -2
BITMAP
0000
0E00
0E00
0E00
0E00
1F00
1F00
1700
1700
3F80
3B80
3380
3380
3F80
7FC0
71C0
61C0
61C0
F3E0
F3E0
0000
0000
ENDCHAR

STARTCHAR jisx0201_42
ENCODING 66
SWIDTH 480 0
DWIDTH 11 0
BBX 11 22 0 -2
BITMAP
0000
FF00
FF80
73C0
71C0
71C0
71C0
71C0
73C0
7F80
7FC0
71E0
70E0
70E0
70E0
70E0
70E0
71E0
FFC0
FF80
0000
0000
ENDCHAR

STARTCHAR jisx0201_43
ENCODING 67
SWIDTH 480 0
DWIDTH 11 0
BBX 11 22 0 -2
BITMAP
0000
0EC0
3FC0
3DE0
78E0
7060
7060
7000
7000
7000
7000
7000
7000
7060
7060
7060
78E0
3DE0
3FC0
0F80
0000
0000
ENDCHAR

STARTCHAR jisx0201_44
ENCODING 68
SWIDTH 480 0
DWIDTH 11 0
BBX 11 22 0 -2
BITMAP
0000
FE00
FF80
77C0
71C0
71E0
70E0
70E0
70E0
70E0
70E0
70E0
70E0
70E0
70E0
71E0
71C0
77C0
FF80
FE00
0000
0000
ENDCHAR

STARTCHAR jisx0201_45
ENCODING 69
SWIDTH 480 0
DWIDTH 11 0
BBX 11 22 0 -2
BITMAP
0000
7FC0
7FC0
39E0
38E0
3860
3860
3980
3980
3F80
3F80
3980
3980
3800
3860
3860
38E0
39E0
7FC0
7FC0
0000
0000
ENDCHAR

STARTCHAR jisx0201_46
ENCODING 70
SWIDTH 480 0
DWIDTH 11 0
BBX 11 22 0 -2
BITMAP
0000
7FC0
7FC0
39E0
38E0
3860
3860
3980
3980
3F80
3F80
3980
3980
3800
3800
3800
3800
3800
7C00
7C00
0000
0000
ENDCHAR

STARTCHAR jisx0201_47
ENCODING 71
SWIDTH 480 0
DWIDTH 11 0
BBX 11 22 0 -2
BITMAP
0000
0EC0
3FC0
3DE0
78E0
7060
7060
7000
7000
7000
73E0
73E0
70E0
70E0
70E0
70E0
78E0
3DE0
3FE0
0F60
0000
0000
ENDCHAR

STARTCHAR jisx0201_48
ENCODING 72
SWIDTH 480 0
DWIDTH 11 0
BBX 11 22 0 -2
BITMAP
0000
FBE0
FBE0
71C0
71C0
71C0
71C0
71C0
71C0
7FC0
7FC0
71C0
71C0
71C0
71C0
71C0
71C0
71C0
FBE0
FBE0
0000
0000
ENDCHAR

STARTCHAR jisx0201_49
ENCODING 73
SWIDTH 480 0
DWIDTH 11 0
BBX 11 22 0 -2
BITMAP
0000
3F80
3F80
0E00
0E00
0E00
0E00
0E00
0E00
0E00
0E00
0E00
0E00
0E00
0E00
0E00
0E00
0E00
3F80
3F80
0000
0000
ENDCHAR

STARTCHAR jisx0201_4A
ENCODING 74
SWIDTH 480 0
DWIDTH 11 0
BBX 11 22 0 -2
BITMAP
0000
03E0
03E0
01C0
01C0
01C0
01C0
01C0
01C0
01C0
01C0
01C0
01C0
01C0
71C0
71C0
71C0
7BC0
3F80
1F00
0000
0000
ENDCHAR

STARTCHAR jisx0201_4B
ENCODING 75
SWIDTH 480 0
DWIDTH 11 0
BBX 11 22 0 -2
BITMAP
0000
FBE0
FBE0
7180
7380
7700
7700
7E00
6E00
7E00
7F00
7700
7700
7780
7380
7380
73C0
71C0
FBE0
FBE0
0000
0000
ENDCHAR

STARTCHAR jisx0201_4C
ENCODING 76
SWIDTH 480 0
DWIDTH 11 0
BBX 11 22 0 -2
BITMAP
0000
7C00
7C00
3800
3800
3800
3800
3800
3800
3800
3800
3800
3800
3800
3860
3860
38E0
39E0
7FC0
7FC0
0000
0000
ENDCHAR

STARTCHAR jisx0201_4D
ENCODING 77
SWIDTH 480 0
DWIDTH 11 0
BBX 11 22 0 -2
BITMAP
0000
F0E0
F0E0
79E0
79E0
7BE0
7BE0
5AE0
5EE0
7EE0
6EE0
6EE0
6EE0
60E0
60E0
60E0
60E0
60E0
F1E0
F1E0
0000
0000
ENDCHAR

STARTCHAR jisx0201_4E
ENCODING 78
SWIDTH 480 0
DWIDTH 11 0
BBX 11 22 0 -2
BITMAP
0000
F1E0
F1E0
78C0
78C0
78C0
7CC0
5CC0
5CC0
7EC0
6EC0
6EC0
66C0
66C0
67C0
63C0
63C0
63C0
F1C0
F1C0
0000
0000
ENDCHAR

STARTCHAR jisx0201_4F
ENCODING 79
SWIDTH 480 0
DWIDTH 11 0
BBX 11 22 0 -2
BITMAP
0000
1F00
7FC0
7BC0
F1E0
E0E0
E0E0
E0E0
E0E0
E0E0
E0E0
E0E0
E0E0
E0E0
E0E0
E0E0
F1E0
7BC0
7FC0
1F00
0000
0000
ENDCHAR

STARTCHAR jisx0201_50
ENCODING 80
SWIDTH 480 0
DWIDTH 11 0
BBX 11 22 0 -2
BITMAP
0000
FF80
FFC0
71E0
70E0
70E0
70E0
70E0
70E0
70E0
71E0
7FC0
7F80
7000
7000
7000
7000
7000
F800
F800
0000
0000
ENDCHAR

STARTCHAR jisx0201_51
ENCODING 81
SWIDTH 480 0
DWIDTH 11 0
BBX 11 22 0 -2
BITMAP
0000
1F00
7FC0
7BC0
F1E0
E0E0
E0E0
E0E0
E0E0
E0E0
E0E0
E0E0
E0E0
E0E0
FEE0
DEE0
F7C0
7BA0
7FE0
1EE0
0000
0000
ENDCHAR

STARTCHAR jisx0201_52
ENCODING 82
SWIDTH 480 0
DWIDTH 11 0
BBX 11 22 0 -2
BITMAP
0000
FF00
FF80
73C0
71C0
71C0
71C0
71C0
71C0
73C0
7F80
7F00
73C0
71C0
71C0
71C0
71E0
71A0
F9E0
F8E0
0000
0000
ENDCHAR

STARTCHAR jisx0201_53
ENCODING 83
SWIDTH 480 0
DWIDTH 11 0
BBX 11 22 0 -2
BITMAP
0000
3D80
7F80
F3C0
E1C0
E0C0
E0C0
F000
F800
7E00
3F80
0FC0
03E0
01E0
C0E0
C0E0
E0E0
F9E0
7FC0
5F80
0000
0000
ENDCHAR

STARTCHAR jisx0201_54
ENCODING 84
SWIDTH 480 0
DWIDTH 11 0
BBX 11 22 0 -2
BITMAP
0000
FFE0
FFE0
EEE0
CE60
CE60
0E00
0E00
0E00
0E00
0E00
0E00
0E00
0E00
0E00
0E00
0E00
0E00
1F00
1F00
0000
0000
ENDCHAR

STARTCHAR jisx0201_55
ENCODING 85
SWIDTH 480 0
DWIDTH 11 0
BBX 11 22 0 -2
BITMAP
0000
F9E0
F9E0
70C0
70C0
70C0
70C0
70C0
70C0
70C0
70C0
70C0
70C0
70C0
70C0
70C0
71C0
7BC0
3F80
1F00
0000
0000
ENDCHAR

STARTCHAR jisx0201_56
ENCODING 86
SWIDTH 480 0
DWIDTH 11 0
BBX 11 22 0 -2
BITMAP
0000
F9E0
F9E0
70C0
70C0
71C0
79C0
3980
3980
3980
3B80
3B80
1B00
1B00
1F00
1F00
0E00
0E00
0E00
0E00
0000
0000
ENDCHAR

STARTCHAR jisx0201_57
ENCODING 87
SWIDTH 480 0
DWIDTH 11 0
BBX 11 22 0 -2
BITMAP
0000
F0E0
F0E0
E060
E060
E060
E660
E660
E6E0
F6E0
7EC0
6EC0
6EC0
7FC0
7FC0
3B80
3B80
3B80
3B80
3B80
0000
0000
ENDCHAR

STARTCHAR jisx0201_58
ENCODING 88
SWIDTH 480 0
DWIDTH 11 0
BBX 11 22 0 -2
BITMAP
0000
F9E0
F9E0
70C0
79C0
3B80
3B80
1B00
1F00
1F00
0E00
1F00
1F00
3780
3B80
3380
73C0
71C0
E3E0
F3E0
0000
0000
ENDCHAR

STARTCHAR jisx0201_59
ENCODING 89
SWIDTH 480 0
DWIDTH 11 0
BBX 11 22 0 -2
BITMAP
0000
F9E0
F9E0
70C0
71C0
79C0
3980
3B80
3B80
1B00
1F00
1F00
0E00
0E00
0E00
0E00
0E00
0E00
1F00
1F00
0000
0000
ENDCHAR

STARTCHAR jisx0201_5A
ENCODING 90
SWIDTH 480 0
DWIDTH 11 0
BBX 11 22 0 -2
BITMAP
0000
3FE0
3FE0
78E0
71C0
63C0
6380
0780
0700
0F00
0E00
1E00
1C00
3C00
3860
7860
70E0
F1E0
EFC0
FFC0
0000
0000
ENDCHAR

STARTCHAR jisx0201_5B
ENCODING 91
SWIDTH 480 0
DWIDTH 11 0
BBX 11 22 0 -2
BITMAP
0FC0
0FC0
0E00
0E00
0E00
0E00
0E00
0E00
0E00
0E00
0E00
0E00
0E00
0E00
0E00
0E00
0E00
0E00
0E00
0FC0
0FC0
0FC0
ENDCHAR

STARTCHAR jisx0201_5C
ENCODING 92
SWIDTH 480 0
DWIDTH 11 0
BBX 11 22 0 -2
BITMAP
0000
F9E0
F9E0
70C0
71C0
79C0
3980
3B80
3B80
1B00
FFE0
FFE0
0E00
FFE0
FFE0
0E00
0E00
0E00
1F00
1F00
0000
0000
ENDCHAR

STARTCHAR jisx0201_5D
ENCODING 93
SWIDTH 480 0
DWIDTH 11 0
BBX 11 22 0 -2
BITMAP
3F00
3F00
0700
0700
0700
0700
0700
0700
0700
0700
0700
0700
0700
0700
0700
0700
0700
0700
0700
3F00
3F00
3F00
ENDCHAR

STARTCHAR jisx0201_5E
ENCODING 94
SWIDTH 480 0
DWIDTH 11 0
BBX 11 22 0 -2
BITMAP
1F00
3F80
7BC0
71C0
0000
0000
0000
0000
0000
0000
0000
0000
0000
0000
0000
0000
0000
0000
0000
0000
0000
0000
ENDCHAR

STARTCHAR jisx0201_5F
ENCODING 95
SWIDTH 480 0
DWIDTH 11 0
BBX 11 22 0 -2
BITMAP
0000
0000
0000
0000
0000
0000
0000
0000
0000
0000
0000
0000
0000
0000
0000
0000
0000
0000
FFE0
FFE0
FFE0
0000
ENDCHAR

STARTCHAR jisx0201_60
ENCODING 96
SWIDTH 480 0
DWIDTH 11 0
BBX 11 22 0 -2
BITMAP
0380
0700
0780
0780
0780
0300
0000
0000
0000
0000
0000
0000
0000
0000
0000
0000
0000
0000
0000
0000
0000
0000
ENDCHAR

STARTCHAR jisx0201_61
ENCODING 97
SWIDTH 480 0
DWIDTH 11 0
BBX 11 22 0 -2
BITMAP
0000
0000
0000
0000
0000
0000
1F80
3FC0
39C0
39C0
01C0
07C0
1FC0
3DC0
79C0
71C0
71E0
7BA0
7FE0
3EE0
0000
0000
ENDCHAR

STARTCHAR jisx0201_62
ENCODING 98
SWIDTH 480 0
DWIDTH 11 0
BBX 11 22 0 -2
BITMAP
0000
1800
7800
7800
3800
3800
3F80
37C0
3DE0
38E0
38E0
38E0
38E0
38E0
38E0
38E0
38E0
3DE0
7FC0
7780
0000
0000
ENDCHAR

STARTCHAR jisx0201_63
ENCODING 99
SWIDTH 480 0
DWIDTH 11 0
BBX 11 22 0 -2
BITMAP
0000
0000
0000
0000
0000
0000
1F00
3F80
7BC0
71C0
71C0
7000
7000
7000
7000
70C0
71C0
7BC0
3F80
1F00
0000
0000
ENDCHAR

STARTCHAR jisx0201_64
ENCODING 100
SWIDTH 480 0
DWIDTH 11 0
BBX 11 22 0 -2
BITMAP
0000
00C0
03C0
03C0
01C0
01C0
1DC0
3FC0
7BC0
71C0
71C0
71C0
71C0
71C0
71C0
71C0
71C0
7BC0
3FE0
1DE0
0000
0000
ENDCHAR

STARTCHAR jisx0201_65
ENCODING 101
SWIDTH 480 0
DWIDTH 11 0
BBX 11 22 0 -2
BITMAP
0000
0000
0000
0000
0000
0000
1F00
3F80
7BC0
71C0
71C0
7FC0
7FC0
7000
7000
70C0
71C0
7BC0
3F80
1F00
0000
0000
ENDCHAR

STARTCHAR jisx0201_66
ENCODING 102
SWIDTH 480 0
DWIDTH 11 0
BBX 11 22 0 -2
BITMAP
0000
07C0
0FC0
0DC0
0E00
0E00
3FC0
3FC0
0E00
0E00
0E00
0E00
0E00
0E00
0E00
0E00
0E00
0E00
1F00
1F00
0000
0000
ENDCHAR

STARTCHAR jisx0201_67
ENCODING 103
SWIDTH 480 0
DWIDTH 11 0
BBX 11 22 0 -2
BITMAP
0000
0000
0000
0000
0000
0000
0EE0
1FE0
3960
39C0
39C0
39C0
1F80
3F00
3800
3FC0
1FE0
79E0
70E0
79E0
3FC0
1F80
ENDCHAR

STARTCHAR jisx0201_68
ENCODING 104
SWIDTH 480 0
DWIDTH 11 0
BBX 11 22 0 -2
BITMAP
0000
3000
F000
F000
7000
7000
7F80
6FC0
79C0
71C0
71C0
71C0
71C0
71C0
71C0
71C0
71C0
71C0
FBE0
FBE0
0000
0000
ENDCHAR

STARTCHAR jisx0201_69
ENCODING 105
SWIDTH 480 0
DWIDTH 11 0
BBX 11 22 0 -2
BITMAP
0000
0E00
0E00
0E00
0000
0000
0600
1E00
1E00
0E00
0E00
0E00
0E00
0E00
0E00
0E00
0E00
0E00
1F00
1F00
0000
0000
ENDCHAR

STARTCHAR jisx0201_6A
ENCODING 106
SWIDTH 480 0
DWIDTH 11 0
BBX 11 22 0 -2
BITMAP
0000
0700
0700
0700
0000
0000
0300
0F00
0F00
0700
0700
0700
0700
0700
0700
0700
0700
0700
7700
7700
7F00
3E00
ENDCHAR

STARTCHAR jisx0201_6B
ENCODING 107
SWIDTH 480 0
DWIDTH 11 0
BBX 11 22 0 -2
BITMAP
0000
3000
F000
F000
7000
7000
73E0
73E0
71C0
7780
7F00
6E00
7F00
7700
7780
7380
73C0
71C0
FBE0
FBE0
0000
0000
ENDCHAR

STARTCHAR jisx0201_6C
ENCODING 108
SWIDTH 480 0
DWIDTH 11 0
BBX 11 22 0 -2
BITMAP
0000
1E00
1E00
0E00
0E00
0E00
0E00
0E00
0E00
0E00
0E00
0E00
0E00
0E00
0E00
0E00
0E00
0E00
1F00
1F00
0000
0000
ENDCHAR

STARTCHAR jisx0201_6D
ENCODING 109
SWIDTH 480 0
DWIDTH 11 0
BBX 11 22 0 -2
BITMAP
0000
0000
0000
0000
0000
0000
2EE0
FFE0
F760
7760
7760
7760
7760
7760
7760
7760
7760
7760
F7E0
F6E0
0000
0000
ENDCHAR

STARTCHAR jisx0201_6E
ENCODING 110
SWIDTH 480 0
DWIDTH 11 0
BBX 11 22 0 -2
BITMAP
0000
0000
0000
0000
0000
0000
2F80
FFC0
F9C0
71C0
71C0
71C0
71C0
71C0
71C0
71C0
71C0
71C0
FBE0
FBE0
0000
0000
ENDCHAR

STARTCHAR jisx0201_6F
ENCODING 111
SWIDTH 480 0
DWIDTH 11 0
BBX 11 22 0 -2
BITMAP
0000
0000
0000
0000
0000
0000
1F00
3F80
7BC0
71C0
71C0
71C0
71C0
71C0
71C0
71C0
71C0
7BC0
3F80
1F00
0000
0000
ENDCHAR

STARTCHAR jisx0201_70
ENCODING 112
SWIDTH 480 0
DWIDTH 11 0
BBX 11 22 0 -2
BITMAP
0000
0000
0000
0000
0000
0000
1780
7FC0
7DE0
38E0
38E0
38E0
38E0
38E0
38E0
38E0
3DE0
3FC0
3780
3800
7C00
7C00
ENDCHAR

STARTCHAR jisx0201_71
ENCODING 113
SWIDTH 480 0
DWIDTH 11 0
BBX 11 22 0 -2
BITMAP
0000
0000
0000
0000
0000
0000
1EC0
3FC0
7BC0
71C0
71C0
71C0
71C0
71C0
71C0
71C0
7BC0
3FC0
1DC0
01C0
03E0
03E0
ENDCHAR

STARTCHAR jisx0201_72
ENCODING 114
SWIDTH 480 0
DWIDTH 11 0
BBX 11 22 0 -2
BITMAP
0000
0000
0000
0000
0000
0000
0DE0
3FE0
3AE0
1E00
1C00
1C00
1C00
1C00
1C00
1C00
1C00
1C00
3E00
3E00
0000
0000
ENDCHAR

STARTCHAR jisx0201_73
ENCODING 115
SWIDTH 480 0
DWIDTH 11 0
BBX 11 22 0 -2
BITMAP
0000
0000
0000
0000
0000
0000
1D80
3F80
7B80
7180
7180
7C00
3F00
1F80
07C0
61C0
61C0
73C0
7F80
5F00
0000
0000
ENDCHAR

STARTCHAR jisx0201_74
ENCODING 116
SWIDTH 480 0
DWIDTH 11 0
BBX 11 22 0 -2
BITMAP
0000
0600
0E00
0E00
0E00
0E00
3F80
3F80
0E00
0E00
0E00
0E00
0E00
0E00
0E00
0E00
0EC0
0FC0
0DC0
0780
0000
0000
ENDCHAR

STARTCHAR jisx0201_75
ENCODING 117
SWIDTH 480 0
DWIDTH 11 0
BBX 11 22 0 -2
BITMAP
0000
0000
0000
0000
0000
0000
30C0
F3C0
F3C0
71C0
71C0
71C0
71C0
71C0
71C0
71C0
71C0
73C0
7FE0
3DE0
0000
0000
ENDCHAR

STARTCHAR jisx0201_76
ENCODING 118
SWIDTH 480 0
DWIDTH 11 0
BBX 11 22 0 -2
BITMAP
0000
0000
0000
0000
0000
0000
F9E0
F9E0
70C0
71C0
79C0
3980
3B80
3B80
1B00
1F00
1F00
0E00
0E00
0E00
0000
0000
ENDCHAR

STARTCHAR jisx0201_77
ENCODING 119
SWIDTH 480 0
DWIDTH 11 0
BBX 11 22 0 -2
BITMAP
0000
0000
0000
0000
0000
0000
F8E0
F8E0
7060
7060
7760
7760
7F60
6F60
7BE0
3FE0
3DC0
39C0
39C0
39C0
0000
0000
ENDCHAR

STARTCHAR jisx0201_78
ENCODING 120
SWIDTH 480 0
DWIDTH 11 0
BBX 11 22 0 -2
BITMAP
0000
0000
0000
0000
0000
0000
7DE0
7DE0
38C0
3DC0
1F80
1B80
0F00
0F00
1F80
1B80
3BC0
39C0
73E0
7BE0
0000
0000
ENDCHAR

STARTCHAR jisx0201_79
ENCODING 121
SWIDTH 480 0
DWIDTH 11 0
BBX 11 22 0 -2
BITMAP
0000
0000
0000
0000
0000
0000
F9E0
F9E0
70C0
79C0
3980
3B80
3B80
1B00
1F00
1F00
0E00
0E00
EE00
FC00
DC00
7800
ENDCHAR

STARTCHAR jisx0201_7A
ENCODING 122
SWIDTH 480 0
DWIDTH 11 0
BBX 11 22 0 -2
BITMAP
0000
0000
0000
0000
0000
0000
3FC0
3FC0
39C0
3380
3780
0700
0F00
1E00
1C00
3CC0
38C0
79C0
77C0
7FC0
0000
0000
ENDCHAR

STARTCHAR jisx0201_7B
ENCODING 123
SWIDTH 480 0
DWIDTH 11 0
BBX 11 22 0 -2
BITMAP
03C0
0780
0700
0700
0700
0700
0700
0700
0F00
1E00
1C00
0F00
0700
0700
0700
0700
0700
0700
0700
0780
03C0
01C0
ENDCHAR

STARTCHAR jisx0201_7C
ENCODING 124
SWIDTH 480 0
DWIDTH 11 0
BBX 11 22 0 -2
BITMAP
0E00
0E00
0E00
0E00
0E00
0E00
0E00
0E00
0E00
0E00
0E00
0E00
0E00
0E00
0E00
0E00
0E00
0E00
0E00
0E00
0E00
0E00
ENDCHAR

STARTCHAR jisx0201_7D
ENCODING 125
SWIDTH 480 0
DWIDTH 11 0
BBX 11 22 0 -2
BITMAP
F000
7800
3800
3800
3800
3800
3800
3800
3C00
1E00
0E00
3C00
3800
3800
3800
3800
3800
3800
3800
7800
F000
E000
ENDCHAR

STARTCHAR jisx0201_7E
ENCODING 126
SWIDTH 480 0
DWIDTH 11 0
BBX 11 22 0 -2
BITMAP
0000
0000
0000
0000
0000
0000
0000
0000
3C20
7FE0
FFE0
C7C0
0000
0000
0000
0000
0000
0000
0000
0000
0000
0000
ENDCHAR

STARTCHAR gly127
ENCODING 127
SWIDTH 480 0
DWIDTH 11 0
BBX 11 22 0 -2
BITMAP
1980
6660
6660
1980
1980
6660
6660
1980
1980
6660
6660
1980
1980
6660
6660
1980
1980
6660
6660
1980
1980
6660
ENDCHAR

STARTCHAR gly128
ENCODING 128
SWIDTH 480 0
DWIDTH 11 0
BBX 11 22 0 -2
BITMAP
0000
0000
1800
2400
2400
1800
2400
2400
2400
1800
0000
0000
0300
0480
0480
0480
0480
0480
0480
0300
0000
0000
ENDCHAR

STARTCHAR gly129
ENCODING 129
SWIDTH 480 0
DWIDTH 11 0
BBX 11 22 0 -2
BITMAP
0000
0000
1800
2400
2400
1800
2400
2400
2400
1800
0000
0000
0100
0300
0100
0100
0100
0100
0100
0380
0000
0000
ENDCHAR

STARTCHAR gly130
ENCODING 130
SWIDTH 480 0
DWIDTH 11 0
BBX 11 22 0 -2
BITMAP
0000
0000
1800
2400
2400
1800
2400
2400
2400
1800
0000
0000
0300
0480
0480
0080
0100
0200
0480
0780
0000
0000
ENDCHAR

STARTCHAR gly131
ENCODING 131
SWIDTH 480 0
DWIDTH 11 0
BBX 11 22 0 -2
BITMAP
0000
0000
1800
2400
2400
1800
2400
2400
2400
1800
0000
0000
0300
0480
0080
0300
0080
0480
0480
0300
0000
0000
ENDCHAR

STARTCHAR gly132
ENCODING 132
SWIDTH 480 0
DWIDTH 11 0
BBX 11 22 0 -2
BITMAP
0000
0000
1800
2400
2400
1800
2400
2400
2400
1800
0000
0000
0080
0180
0180
0280
0280
07C0
0080
01C0
0000
0000
ENDCHAR

STARTCHAR gly133
ENCODING 133
SWIDTH 480 0
DWIDTH 11 0
BBX 11 22 0 -2
BITMAP
0000
0000
1800
2400
2400
1800
2400
2400
2400
1800
0000
0000
0780
0400
0400
0700
0480
0080
0480
0300
0000
0000
ENDCHAR

STARTCHAR gly134
ENCODING 134
SWIDTH 480 0
DWIDTH 11 0
BBX 11 22 0 -2
BITMAP
0000
0000
1800
2400
2400
1800
2400
2400
2400
1800
0000
0000
0300
0580
0400
0700
0480
0480
0480
0300
0000
0000
ENDCHAR

STARTCHAR gly135
ENCODING 135
SWIDTH 480 0
DWIDTH 11 0
BBX 11 22 0 -2
BITMAP
0000
0000
1800
2400
2400
1800
2400
2400
2400
1800
0000
0000
0780
0480
0100
0100
0200
0200
0200
0200
0000
0000
ENDCHAR

STARTCHAR gly136
ENCODING 136
SWIDTH 480 0
DWIDTH 11 0
BBX 11 22 0 -2
BITMAP
0000
0000
1800
2400
2400
1800
2400
2400
2400
1800
0000
0000
0300
0480
0480
0300
0480
0480
0480
0300
0000
0000
ENDCHAR

STARTCHAR gly137
ENCODING 137
SWIDTH 480 0
DWIDTH 11 0
BBX 11 22 0 -2
BITMAP
0000
0000
1800
2400
2400
1800
2400
2400
2400
1800
0000
0000
0300
0480
0480
0480
0380
0080
0480
0300
0000
0000
ENDCHAR

STARTCHAR gly138
ENCODING 138
SWIDTH 480 0
DWIDTH 11 0
BBX 11 22 0 -2
BITMAP
0000
0000
1800
2400
2400
1800
2400
2400
2400
1800
0000
0000
0300
0300
0300
0480
0480
0780
0480
0DC0
0000
0000
ENDCHAR

STARTCHAR gly139
ENCODING 139
SWIDTH 480 0
DWIDTH 11 0
BBX 11 22 0 -2
BITMAP
0000
0000
1800
2400
2400
1800
2400
2400
2400
1800
0000
0000
0780
0240
0240
0380
0240
0240
0240
0780
0000
0000
ENDCHAR

STARTCHAR gly140
ENCODING 140
SWIDTH 480 0
DWIDTH 11 0
BBX 11 22 0 -2
BITMAP
0000
0000
1800
2400
2400
1800
2400
2400
2400
1800
0000
0000
0380
0480
0480
0400
0400
0480
0480
0300
0000
0000
ENDCHAR

STARTCHAR gly141
ENCODING 141
SWIDTH 480 0
DWIDTH 11 0
BBX 11 22 0 -2
BITMAP
0000
0000
1800
2400
2400
1800
2400
2400
2400
1800
0000
0000
0780
0240
0240
0240
0240
0240
0240
0780
0000
0000
ENDCHAR

STARTCHAR gly142
ENCODING 142
SWIDTH 480 0
DWIDTH 11 0
BBX 11 22 0 -2
BITMAP
0000
0000
1800
2400
2400
1800
2400
2400
2400
1800
0000
0000
07C0
0240
0200
0380
0200
0200
0240
07C0
0000
0000
ENDCHAR

STARTCHAR gly143
ENCODING 143
SWIDTH 480 0
DWIDTH 11 0
BBX 11 22 0 -2
BITMAP
0000
0000
1800
2400
2400
1800
2400
2400
2400
1800
0000
0000
07C0
0240
0200
0380
0200
0200
0200
0700
0000
0000
ENDCHAR

STARTCHAR gly144
ENCODING 144
SWIDTH 480 0
DWIDTH 11 0
BBX 11 22 0 -2
BITMAP
0000
0000
1800
2400
2400
2400
1C00
0400
2400
1800
0000
0000
0300
0480
0480
0480
0480
0480
0480
0300
0000
0000
ENDCHAR

STARTCHAR gly145
ENCODING 145
SWIDTH 480 0
DWIDTH 11 0
BBX 11 22 0 -2
BITMAP
0000
0000
1800
2400
2400
2400
1C00
0400
2400
1800
0000
0000
0100
0300
0100
0100
0100
0100
0100
0380
0000
0000
ENDCHAR

STARTCHAR gly146
ENCODING 146
SWIDTH 480 0
DWIDTH 11 0
BBX 11 22 0 -2
BITMAP
0000
0000
1800
2400
2400
2400
1C00
0400
2400
1800
0000
0000
0300
0480
0480
0080
0100
0200
0480
0780
0000
0000
ENDCHAR

STARTCHAR gly147
ENCODING 147
SWIDTH 480 0
DWIDTH 11 0
BBX 11 22 0 -2
BITMAP
0000
0000
1800
2400
2400
2400
1C00
0400
2400
1800
0000
0000
0300
0480
0080
0300
0080
0480
0480
0300
0000
0000
ENDCHAR

STARTCHAR gly148
ENCODING 148
SWIDTH 480 0
DWIDTH 11 0
BBX 11 22 0 -2
BITMAP
0000
0000
1800
2400
2400
2400
1C00
0400
2400
1800
0000
0000
0080
0180
0180
0280
0280
07C0
0080
01C0
0000
0000
ENDCHAR

STARTCHAR gly149
ENCODING 149
SWIDTH 480 0
DWIDTH 11 0
BBX 11 22 0 -2
BITMAP
0000
0000
1800
2400
2400
2400
1C00
0400
2400
1800
0000
0000
0780
0400
0400
0700
0480
0080
0480
0300
0000
0000
ENDCHAR

STARTCHAR gly150
ENCODING 150
SWIDTH 480 0
DWIDTH 11 0
BBX 11 22 0 -2
BITMAP
0000
0000
1800
2400
2400
2400
1C00
0400
2400
1800
0000
0000
0300
0580
0400
0700
0480
0480
0480
0300
0000
0000
ENDCHAR

STARTCHAR gly151
ENCODING 151
SWIDTH 480 0
DWIDTH 11 0
BBX 11 22 0 -2
BITMAP
0000
0000
1800
2400
2400
2400
1C00
0400
2400
1800
0000
0000
0780
0480
0100
0100
0200
0200
0200
0200
0000
0000
ENDCHAR

STARTCHAR gly152
ENCODING 152
SWIDTH 480 0
DWIDTH 11 0
BBX 11 22 0 -2
BITMAP
0000
0000
1800
2400
2400
2400
1C00
0400
2400
1800
0000
0000
0300
0480
0480
0300
0480
0480
0480
0300
0000
0000
ENDCHAR

STARTCHAR gly153
ENCODING 153
SWIDTH 480 0
DWIDTH 11 0
BBX 11 22 0 -2
BITMAP
0000
0000
1800
2400
2400
2400
1C00
0400
2400
1800
0000
0000
0300
0480
0480
0480
0380
0080
0480
0300
0000
0000
ENDCHAR

STARTCHAR gly154
ENCODING 154
SWIDTH 480 0
DWIDTH 11 0
BBX 11 22 0 -2
BITMAP
0000
0000
1800
2400
2400
2400
1C00
0400
2400
1800
0000
0000
0300
0300
0300
0480
0480
0780
0480
0DC0
0000
0000
ENDCHAR

STARTCHAR gly155
ENCODING 155
SWIDTH 480 0
DWIDTH 11 0
BBX 11 22 0 -2
BITMAP
0000
0000
1800
2400
2400
2400
1C00
0400
2400
1800
0000
0000
0780
0240
0240
0380
0240
0240
0240
0780
0000
0000
ENDCHAR

STARTCHAR gly156
ENCODING 156
SWIDTH 480 0
DWIDTH 11 0
BBX 11 22 0 -2
BITMAP
0000
0000
1800
2400
2400
2400
1C00
0400
2400
1800
0000
0000
0380
0480
0480
0400
0400
0480
0480
0300
0000
0000
ENDCHAR

STARTCHAR gly157
ENCODING 157
SWIDTH 480 0
DWIDTH 11 0
BBX 11 22 0 -2
BITMAP
0000
0000
1800
2400
2400
2400
1C00
0400
2400
1800
0000
0000
0780
0240
0240
0240
0240
0240
0240
0780
0000
0000
ENDCHAR

STARTCHAR gly158
ENCODING 158
SWIDTH 480 0
DWIDTH 11 0
BBX 11 22 0 -2
BITMAP
0000
0000
1800
2400
2400
2400
1C00
0400
2400
1800
0000
0000
07C0
0240
0200
0380
0200
0200
0240
07C0
0000
0000
ENDCHAR

STARTCHAR gly159
ENCODING 159
SWIDTH 480 0
DWIDTH 11 0
BBX 11 22 0 -2
BITMAP
0000
0000
1800
2400
2400
2400
1C00
0400
2400
1800
0000
0000
07C0
0240
0200
0380
0200
0200
0200
0700
0000
0000
ENDCHAR

STARTCHAR gly160
ENCODING 160
SWIDTH 480 0
DWIDTH 11 0
BBX 11 22 0 -2
BITMAP
0000
0000
1800
1800
1800
2400
2400
3C00
2400
6E00
0000
0000
0300
0480
0480
0480
0480
0480
0480
0300
0000
0000
ENDCHAR

STARTCHAR jisx0201_A1
ENCODING 161
SWIDTH 480 0
DWIDTH 11 0
BBX 11 22 0 -2
BITMAP
0000
0000
0000
0000
0000
0000
0000
0000
0000
0000
0000
0000
0000
0000
0000
0000
7800
FC00
CC00
CC00
FC00
7800
ENDCHAR

STARTCHAR jisx0201_A2
ENCODING 162
SWIDTH 480 0
DWIDTH 11 0
BBX 11 22 0 -2
BITMAP
07E0
07E0
0700
0700
0700
0700
0700
0700
0700
0700
0700
0700
0700
0700
0700
0700
0700
0700
0700
0700
0700
0700
ENDCHAR

STARTCHAR jisx0201_A3
ENCODING 163
SWIDTH 480 0
DWIDTH 11 0
BBX 11 22 0 -2
BITMAP
0E00
0E00
0E00
0E00
0E00
0E00
0E00
0E00
0E00
0E00
0E00
0E00
0E00
0E00
0E00
0E00
0E00
0E00
0E00
FE00
FE00
FE00
ENDCHAR

STARTCHAR jisx0201_A4
ENCODING 164
SWIDTH 480 0
DWIDTH 11 0
BBX 11 22 0 -2
BITMAP
0000
0000
0000
0000
0000
0000
0000
0000
0000
0000
0000
0000
0000
0000
0000
0000
0000
E000
F000
7800
3800
3800
ENDCHAR

STARTCHAR jisx0201_A5
ENCODING 165
SWIDTH 480 0
DWIDTH 11 0
BBX 11 22 0 -2
BITMAP
0000
0000
0000
0000
0000
0000
0000
0000
0E00
1F00
1F00
1F00
0E00
0000
0000
0000
0000
0000
0000
0000
0000
0000
ENDCHAR

STARTCHAR jisx0201_A6
ENCODING 166
SWIDTH 480 0
DWIDTH 11 0
BBX 11 22 0 -2
BITMAP
0000
0000
60E0
7FE0
7FE0
78E0
00E0
60E0
7FE0
7FE0
78E0
00E0
01E0
01C0
01C0
03C0
0380
0780
0F00
1E00
1C00
0000
ENDCHAR

STARTCHAR jisx0201_A7
ENCODING 167
SWIDTH 480 0
DWIDTH 11 0
BBX 11 22 0 -2
BITMAP
0000
0000
0000
0000
0000
C0C0
FFE0
FFE0
71E0
03C0
1F80
1F00
0E00
0E00
0E00
0E00
1E00
1C00
3C00
3800
3000
0000
ENDCHAR

STARTCHAR jisx0201_A8
ENCODING 168
SWIDTH 480 0
DWIDTH 11 0
BBX 11 22 0 -2
BITMAP
0000
0000
0000
0000
03C0
03E0
01E0
03C0
0380
0780
0F00
1F80
3F00
7700
F700
E700
0700
0700
0F00
0F00
0700
0000
ENDCHAR

STARTCHAR jisx0201_A9
ENCODING 169
SWIDTH 480 0
DWIDTH 11 0
BBX 11 22 0 -2
BITMAP
0000
0000
0000
0000
1E00
1E00
0E00
EFC0
FDE0
7FE0
71C0
71C0
71C0
71C0
71C0
03C0
0380
0780
0F00
1E00
1C00
0000
ENDCHAR

STARTCHAR jisx0201_AA
ENCODING 170
SWIDTH 480 0
DWIDTH 11 0
BBX 11 22 0 -2
BITMAP
0000
0000
0000
0000
0000
0000
61E0
7FE0
7FE0
6E00
0F00
0E00
0E00
0E00
0E00
CEE0
FFE0
FFE0
F020
0000
0000
0000
ENDCHAR

STARTCHAR jisx0201_AB
ENCODING 171
SWIDTH 480 0
DWIDTH 11 0
BBX 11 22 0 -2
BITMAP
0000
0000
0000
0000
0780
0780
0380
63E0
7F60
7FE0
7780
0F80
0F80
1F80
3B80
7B80
F380
EF80
0780
0380
0300
0000
ENDCHAR

STARTCHAR jisx0201_AC
ENCODING 172
SWIDTH 480 0
DWIDTH 11 0
BBX 11 22 0 -2
BITMAP
0000
0000
0000
0000
3C00
3E00
1E00
1CE0
DFE0
FFE0
FCE0
DDC0
1F80
1B00
1C00
0E00
0E00
0E00
0E00
0E00
0E00
0000
ENDCHAR

STARTCHAR jisx0201_AD
ENCODING 173
SWIDTH 480 0
DWIDTH 11 0
BBX 11 22 0 -2
BITMAP
0000
0000
0000
0000
0000
0000
3380
3FC0
3FC0
3B80
0380
0380
0380
0300
0300
C3E0
FEE0
FFE0
F020
0000
0000
0000
ENDCHAR

STARTCHAR jisx0201_AE
ENCODING 174
SWIDTH 480 0
DWIDTH 11 0
BBX 11 22 0 -2
BITMAP
0000
0000
0000
0000
0000
0000
31C0
3FE0
3FE0
39C0
01C0
31C0
3FC0
3FC0
39C0
01C0
31C0
3FE0
3FE0
3800
0000
0000
ENDCHAR

STARTCHAR jisx0201_AF
ENCODING 175
SWIDTH 480 0
DWIDTH 11 0
BBX 11 22 0 -2
BITMAP
0000
0000
0000
0000
0000
1B80
DFC0
FDE0
EDE0
7DC0
71C0
01C0
03C0
0380
0380
0780
0700
0F00
1E00
3C00
3800
0000
ENDCHAR

STARTCHAR jisx0201_B0
ENCODING 176
SWIDTH 480 0
DWIDTH 11 0
BBX 11 22 0 -2
BITMAP
0000
0000
0000
0000
0000
0000
0000
0000
C0E0
FFE0
FFE0
F020
0000
0000
0000
0000
0000
0000
0000
0000
0000
0000
ENDCHAR

STARTCHAR jisx0201_B1
ENCODING 177
SWIDTH 480 0
DWIDTH 11 0
BBX 11 22 0 -2
BITMAP
0000
C0E0
FFE0
FFE0
F0E0
01C0
03C0
1F80
1F00
0E00
0E00
0E00
0E00
1E00
1C00
1C00
3C00
3800
7800
7000
6000
0000
ENDCHAR

STARTCHAR jisx0201_B2
ENCODING 178
SWIDTH 480 0
DWIDTH 11 0
BBX 11 22 0 -2
BITMAP
0380
03C0
01E0
01E0
03C0
0380
0780
0700
0F80
1F00
1F00
3700
7700
F700
E700
0700
0700
0700
0F00
0F00
0700
0000
ENDCHAR

STARTCHAR jisx0201_B3
ENCODING 179
SWIDTH 480 0
DWIDTH 11 0
BBX 11 22 0 -2
BITMAP
1E00
1F00
0F00
0E00
EEE0
FFE0
7FE0
70E0
70E0
70E0
70E0
70E0
71E0
01C0
01C0
03C0
0380
0780
0F00
1E00
1C00
0000
ENDCHAR

STARTCHAR jisx0201_B4
ENCODING 180
SWIDTH 480 0
DWIDTH 11 0
BBX 11 22 0 -2
BITMAP
0000
0000
0000
61E0
7FE0
7FE0
6E60
0F00
0E00
0E00
0E00
0E00
0E00
0E00
0E00
CEE0
FFE0
FFE0
F020
0000
0000
0000
ENDCHAR

STARTCHAR jisx0201_B5
ENCODING 181
SWIDTH 480 0
DWIDTH 11 0
BBX 11 22 0 -2
BITMAP
0780
07C0
03C0
0380
C3E0
FFE0
FFE0
F7A0
0FC0
0DC0
0DC0
1DC0
1DC0
3DC0
39C0
71C0
FDC0
EFC0
07C0
0380
0300
0000
ENDCHAR

STARTCHAR jisx0201_B6
ENCODING 182
SWIDTH 480 0
DWIDTH 11 0
BBX 11 22 0 -2
BITMAP
1E00
1F00
0F00
0E00
CEE0
FFE0
FFE0
DCE0
1CE0
1CE0
1CE0
3CE0
38E0
38E0
78E0
71E0
7DC0
EFC0
E7C0
C380
0300
0000
ENDCHAR

STARTCHAR jisx0201_B7
ENCODING 183
SWIDTH 480 0
DWIDTH 11 0
BBX 11 22 0 -2
BITMAP
1E00
1F00
0F00
0EE0
CDE0
FFE0
FE60
EE00
0E00
0EE0
CFE0
FFE0
FF20
F700
0700
0700
0700
0700
0780
0780
0700
0000
ENDCHAR

STARTCHAR jisx0201_B8
ENCODING 184
SWIDTH 480 0
DWIDTH 11 0
BBX 11 22 0 -2
BITMAP
3C00
3E00
1E00
1CE0
3FE0
3FE0
38E0
78E0
70E0
F0E0
E1E0
C1C0
01C0
03C0
0380
0780
0700
0F00
1E00
3C00
3800
0000
ENDCHAR

STARTCHAR jisx0201_B9
ENCODING 185
SWIDTH 480 0
DWIDTH 11 0
BBX 11 22 0 -2
BITMAP
7800
7C00
3C00
3800
38E0
3FE0
7FE0
7380
73C0
E380
E380
C380
0380
0780
0700
0700
0F00
0E00
1E00
3C00
3800
0000
ENDCHAR

STARTCHAR jisx0201_BA
ENCODING 186
SWIDTH 480 0
DWIDTH 11 0
BBX 11 22 0 -2
BITMAP
0000
0000
0000
61C0
7FE0
7FE0
79C0
01C0
01C0
01C0
01C0
01C0
01C0
01C0
01C0
61C0
7FE0
7FE0
7800
0000
0000
0000
ENDCHAR

STARTCHAR jisx0201_BB
ENCODING 187
SWIDTH 480 0
DWIDTH 11 0
BBX 11 22 0 -2
BITMAP
0780
7FC0
7BC0
3B80
3B80
BBE0
FF60
FFE0
FBA0
3B80
3B80
3B80
3B80
3B80
3B80
0380
0780
0700
0F00
1E00
1C00
0000
ENDCHAR

STARTCHAR jisx0201_BC
ENCODING 188
SWIDTH 480 0
DWIDTH 11 0
BBX 11 22 0 -2
BITMAP
0000
0000
7000
7800
3C20
1C20
1C60
E060
F060
78E0
38E0
39C0
03C0
0380
0780
2F00
3F00
3E00
3C00
1800
0000
0000
ENDCHAR

STARTCHAR jisx0201_BD
ENCODING 189
SWIDTH 480 0
DWIDTH 11 0
BBX 11 22 0 -2
BITMAP
0000
0000
31C0
3FE0
3FE0
39C0
01C0
03C0
0380
0380
0780
0700
0FC0
0DE0
1EE0
1CE0
3860
7860
F060
E060
0000
0000
ENDCHAR

STARTCHAR jisx0201_BE
ENCODING 190
SWIDTH 480 0
DWIDTH 11 0
BBX 11 22 0 -2
BITMAP
3C00
3E00
1E00
1C00
1C00
1CE0
DFE0
FFE0
FCE0
DDE0
1DC0
1FC0
1B80
1F00
1C00
1C00
1CC0
1FE0
1FE0
0FE0
0000
0000
ENDCHAR

STARTCHAR jisx0201_BF
ENCODING 191
SWIDTH 480 0
DWIDTH 11 0
BBX 11 22 0 -2
BITMAP
0000
0000
01C0
E1E0
F0E0
78E0
38E0
38E0
38E0
01E0
01C0
01C0
03C0
0380
0780
0700
0F00
1E00
3C00
3800
0000
0000
ENDCHAR

STARTCHAR jisx0201_C0
ENCODING 192
SWIDTH 480 0
DWIDTH 11 0
BBX 11 22 0 -2
BITMAP
3C00
3E00
1E00
1CE0
1FE0
3FE0
38E0
78E0
71E0
FDC0
EFC0
C7C0
0380
03E0
07E0
0EE0
0EE0
1E00
3C00
7800
7000
0000
ENDCHAR

STARTCHAR jisx0201_C1
ENCODING 193
SWIDTH 480 0
DWIDTH 11 0
BBX 11 22 0 -2
BITMAP
03C0
03E0
05E0
7F80
7F00
0780
0700
C7E0
FEE0
FFE0
F720
0700
0700
0700
0700
0F00
0E00
1E00
3C00
7800
7000
0000
ENDCHAR

STARTCHAR jisx0201_C2
ENCODING 194
SWIDTH 480 0
DWIDTH 11 0
BBX 11 22 0 -2
BITMAP
0000
0000
19C0
DDE0
FEE0
EEE0
6EE0
7EE0
70E0
01E0
01C0
01C0
03C0
0380
0780
0700
0F00
1E00
3C00
3800
0000
0000
ENDCHAR

STARTCHAR jisx0201_C3
ENCODING 195
SWIDTH 480 0
DWIDTH 11 0
BBX 11 22 0 -2
BITMAP
0000
61E0
7FE0
7FE0
7800
0000
C0E0
FFE0
FFE0
F720
0780
0700
0700
0700
0700
0F00
0E00
1E00
3C00
7800
7000
0000
ENDCHAR

STARTCHAR jisx0201_C4
ENCODING 196
SWIDTH 480 0
DWIDTH 11 0
BBX 11 22 0 -2
BITMAP
3C00
3E00
1E00
1C00
1C00
1C00
1C00
1F00
1FC0
1BE0
1DE0
1CE0
1CE0
1C00
1C00
1C00
1C00
1C00
3C00
3C00
1C00
0000
ENDCHAR

STARTCHAR jisx0201_C5
ENCODING 197
SWIDTH 480 0
DWIDTH 11 0
BBX 11 22 0 -2
BITMAP
0F00
0F80
0780
0700
0700
C760
FFE0
FFE0
F720
0700
0700
0700
0700
0700
0700
0F00
0E00
1E00
3C00
7800
7000
0000
ENDCHAR

STARTCHAR jisx0201_C6
ENCODING 198
SWIDTH 480 0
DWIDTH 11 0
BBX 11 22 0 -2
BITMAP
0000
0000
0000
3380
3F80
3F80
1F00
0000
0000
0000
0000
0000
0000
0000
C1E0
FFE0
FFE0
F060
0000
0000
0000
0000
ENDCHAR

STARTCHAR jisx0201_C7
ENCODING 199
SWIDTH 480 0
DWIDTH 11 0
BBX 11 22 0 -2
BITMAP
0000
0000
61C0
7FE0
7FE0
79C0
01C0
01C0
3BC0
3B80
1F80
0F80
0700
0FC0
0DE0
1DE0
3CE0
78E0
F000
E000
0000
0000
ENDCHAR

STARTCHAR jisx0201_C8
ENCODING 200
SWIDTH 480 0
DWIDTH 11 0
BBX 11 22 0 -2
BITMAP
0F00
0700
0700
30C0
3FE0
3FE0
39C0
03C0
0380
0780
0F00
1FC0
3FE0
76E0
F760
E760
0700
0700
0F00
0F00
0700
0000
ENDCHAR

STARTCHAR jisx0201_C9
ENCODING 201
SWIDTH 480 0
DWIDTH 11 0
BBX 11 22 0 -2
BITMAP
0000
0000
0380
03C0
01E0
01E0
01C0
03C0
0380
0380
0780
0700
0F00
0E00
1E00
3C00
3800
7800
F000
E000
0000
0000
ENDCHAR

STARTCHAR jisx0201_CA
ENCODING 202
SWIDTH 480 0
DWIDTH 11 0
BBX 11 22 0 -2
BITMAP
0000
0000
0000
3D80
3DC0
1DC0
1CE0
1CE0
1CE0
1CE0
3C60
3860
3860
3860
7860
7060
F060
E060
C000
0000
0000
0000
ENDCHAR

STARTCHAR jisx0201_CB
ENCODING 203
SWIDTH 480 0
DWIDTH 11 0
BBX 11 22 0 -2
BITMAP
0000
7800
7C00
3C00
3BC0
3BE0
39E0
3FC0
3780
3E00
3800
3800
3800
3800
3800
3800
38C0
3FE0
3FE0
1FE0
0000
0000
ENDCHAR

STARTCHAR jisx0201_CC
ENCODING 204
SWIDTH 480 0
DWIDTH 11 0
BBX 11 22 0 -2
BITMAP
0000
0000
C1C0
FFE0
FFE0
F1C0
01C0
01C0
01C0
01C0
01C0
03C0
0380
0380
0780
0700
0F00
1E00
3C00
3800
0000
0000
ENDCHAR

STARTCHAR jisx0201_CD
ENCODING 205
SWIDTH 480 0
DWIDTH 11 0
BBX 11 22 0 -2
BITMAP
0000
0000
0000
0000
0C00
1E00
1E00
3700
B700
F380
F380
F1C0
61E0
00E0
00E0
00E0
0060
0060
0000
0000
0000
0000
ENDCHAR

STARTCHAR jisx0201_CE
ENCODING 206
SWIDTH 480 0
DWIDTH 11 0
BBX 11 22 0 -2
BITMAP
0F00
0F80
0780
0700
67E0
7EE0
7FE0
7720
0700
37C0
36E0
37E0
7760
F760
F760
E760
1700
1F00
0F00
0700
0600
0000
ENDCHAR

STARTCHAR jisx0201_CF
ENCODING 207
SWIDTH 480 0
DWIDTH 11 0
BBX 11 22 0 -2
BITMAP
0000
0000
C0E0
FFE0
FFE0
F0E0
00E0
01E0
01C0
01C0
33C0
3B80
3F80
1700
1E00
0E00
0F00
0700
0700
0700
0000
0000
ENDCHAR

STARTCHAR jisx0201_D0
ENCODING 208
SWIDTH 480 0
DWIDTH 11 0
BBX 11 22 0 -2
BITMAP
0000
0000
3E00
3F80
0F80
0380
0000
0000
3E00
3F80
0F80
0380
0000
0000
7800
7F00
1FC0
07E0
01E0
00E0
0000
0000
ENDCHAR

STARTCHAR jisx0201_D1
ENCODING 209
SWIDTH 480 0
DWIDTH 11 0
BBX 11 22 0 -2
BITMAP
0000
1C00
1E00
0F00
0F00
0E00
0E00
0E00
1C00
1C00
1D80
1DC0
19E0
38E0
38E0
B360
FFE0
FF60
F860
6060
0000
0000
ENDCHAR

STARTCHAR jisx0201_D2
ENCODING 210
SWIDTH 480 0
DWIDTH 11 0
BBX 11 22 0 -2
BITMAP
0000
0380
03C0
01E0
01E0
01C0
03C0
7380
7B80
3F80
0F00
07C0
0FE0
0DE0
1EE0
1CE0
3C00
7800
F000
E000
0000
0000
ENDCHAR

STARTCHAR jisx0201_D3
ENCODING 211
SWIDTH 480 0
DWIDTH 11 0
BBX 11 22 0 -2
BITMAP
0000
61E0
7FE0
7FE0
6E60
0F00
0E00
0E00
CEE0
FFE0
FFE0
EE20
0E00
0E00
0E00
0E00
0EC0
0FE0
0FE0
07E0
0000
0000
ENDCHAR

STARTCHAR jisx0201_D4
ENCODING 212
SWIDTH 480 0
DWIDTH 11 0
BBX 11 22 0 -2
BITMAP
3C00
3E00
1E00
1C00
1CE0
DFE0
FFE0
FCE0
DDE0
1DC0
1FC0
1B80
1F00
1C00
0E00
0E00
0E00
0E00
0E00
0E00
0E00
0000
ENDCHAR

STARTCHAR jisx0201_D5
ENCODING 213
SWIDTH 480 0
DWIDTH 11 0
BBX 11 22 0 -2
BITMAP
0000
0000
0000
61C0
7FE0
7FE0
79C0
01C0
01C0
01C0
03C0
0380
0380
0380
0380
C3E0
FFE0
FFE0
F020
0000
0000
0000
ENDCHAR

STARTCHAR jisx0201_D6
ENCODING 214
SWIDTH 480 0
DWIDTH 11 0
BBX 11 22 0 -2
BITMAP
0000
0000
60E0
7FE0
7FE0
78E0
00E0
00E0
60E0
7FE0
7FE0
79C0
01C0
01C0
01C0
61C0
7FE0
7FE0
7860
0000
0000
0000
ENDCHAR

STARTCHAR jisx0201_D7
ENCODING 215
SWIDTH 480 0
DWIDTH 11 0
BBX 11 22 0 -2
BITMAP
0000
31C0
3FC0
3FC0
1F80
0000
C0E0
FFE0
FFE0
78E0
00E0
00E0
01E0
01C0
01C0
03C0
0380
0780
0F00
1E00
1C00
0000
ENDCHAR

STARTCHAR jisx0201_D8
ENCODING 216
SWIDTH 480 0
DWIDTH 11 0
BBX 11 22 0 -2
BITMAP
0000
03C0
7BE0
7DE0
3DC0
39C0
39C0
39C0
39C0
39C0
39C0
39C0
39C0
39C0
01C0
03C0
0380
0780
0F00
1E00
1C00
0000
ENDCHAR

STARTCHAR jisx0201_D9
ENCODING 217
SWIDTH 480 0
DWIDTH 11 0
BBX 11 22 0 -2
BITMAP
0000
0F00
0F80
7780
7700
3700
3700
3700
3720
3720
3720
3760
3760
3760
77E0
76E0
77C0
E7C0
E780
C300
0000
0000
ENDCHAR

STARTCHAR jisx0201_DA
ENCODING 218
SWIDTH 480 0
DWIDTH 11 0
BBX 11 22 0 -2
BITMAP
0000
7800
7C00
3C00
3800
3800
3800
3800
3820
3820
3860
38E0
38E0
39E0
3BC0
3F80
3780
7F00
7E00
3C00
1800
0000
ENDCHAR

STARTCHAR jisx0201_DB
ENCODING 219
SWIDTH 480 0
DWIDTH 11 0
BBX 11 22 0 -2
BITMAP
0000
0000
0000
E0E0
FFE0
7FE0
70E0
70E0
70E0
70E0
70E0
71E0
71C0
71C0
71C0
71C0
7FE0
7FE0
7000
0000
0000
0000
ENDCHAR

STARTCHAR jisx0201_DC
ENCODING 220
SWIDTH 480 0
DWIDTH 11 0
BBX 11 22 0 -2
BITMAP
0000
E0E0
FFE0
7FE0
70E0
70E0
70E0
70E0
70E0
70E0
70E0
70E0
01E0
01C0
01C0
03C0
0380
0780
0F00
1E00
1C00
0000
ENDCHAR

STARTCHAR jisx0201_DD
ENCODING 221
SWIDTH 480 0
DWIDTH 11 0
BBX 11 22 0 -2
BITMAP
0000
0000
7000
7800
3C20
1C20
1C60
1C60
0060
00E0
00E0
01C0
03C0
0380
0780
2F00
3F00
3E00
3C00
1800
0000
0000
ENDCHAR

STARTCHAR jisx0201_DE
ENCODING 222
SWIDTH 480 0
DWIDTH 11 0
BBX 11 22 0 -2
BITMAP
3800
F800
D800
E000
6000
0000
0000
0000
0000
0000
0000
0000
0000
0000
0000
0000
0000
0000
0000
0000
0000
0000
ENDCHAR

STARTCHAR jisx0201_DF
ENCODING 223
SWIDTH 480 0
DWIDTH 11 0
BBX 11 22 0 -2
BITMAP
F800
D800
F800
7000
0000
0000
0000
0000
0000
0000
0000
0000
0000
0000
0000
0000
0000
0000
0000
0000
0000
0000
ENDCHAR

STARTCHAR gly224
ENCODING 224
SWIDTH 480 0
DWIDTH 11 0
BBX 11 22 0 -2
BITMAP
0000
0000
3E00
1200
1000
1C00
1000
1000
1200
3E00
0000
0000
0300
0480
0480
0480
0480
0480
0480
0300
0000
0000
ENDCHAR

STARTCHAR gly225
ENCODING 225
SWIDTH 480 0
DWIDTH 11 0
BBX 11 22 0 -2
BITMAP
0000
0000
3E00
1200
1000
1C00
1000
1000
1200
3E00
0000
0000
0100
0300
0100
0100
0100
0100
0100
0380
0000
0000
ENDCHAR

STARTCHAR gly226
ENCODING 226
SWIDTH 480 0
DWIDTH 11 0
BBX 11 22 0 -2
BITMAP
0000
0000
3E00
1200
1000
1C00
1000
1000
1200
3E00
0000
0000
0300
0480
0480
0080
0100
0200
0480
0780
0000
0000
ENDCHAR

STARTCHAR gly227
ENCODING 227
SWIDTH 480 0
DWIDTH 11 0
BBX 11 22 0 -2
BITMAP
0000
0000
3E00
1200
1000
1C00
1000
1000
1200
3E00
0000
0000
0300
0480
0080
0300
0080
0480
0480
0300
0000
0000
ENDCHAR

STARTCHAR gly228
ENCODING 228
SWIDTH 480 0
DWIDTH 11 0
BBX 11 22 0 -2
BITMAP
0000
0000
3E00
1200
1000
1C00
1000
1000
1200
3E00
0000
0000
0080
0180
0180
0280
0280
07C0
0080
01C0
0000
0000
ENDCHAR

STARTCHAR gly229
ENCODING 229
SWIDTH 480 0
DWIDTH 11 0
BBX 11 22 0 -2
BITMAP
0000
0000
3E00
1200
1000
1C00
1000
1000
1200
3E00
0000
0000
0780
0400
0400
0700
0480
0080
0480
0300
0000
0000
ENDCHAR

STARTCHAR gly230
ENCODING 230
SWIDTH 480 0
DWIDTH 11 0
BBX 11 22 0 -2
BITMAP
0000
0000
3E00
1200
1000
1C00
1000
1000
1200
3E00
0000
0000
0300
0580
0400
0700
0480
0480
0480
0300
0000
0000
ENDCHAR

STARTCHAR gly231
ENCODING 231
SWIDTH 480 0
DWIDTH 11 0
BBX 11 22 0 -2
BITMAP
0000
0000
3E00
1200
1000
1C00
1000
1000
1200
3E00
0000
0000
0780
0480
0100
0100
0200
0200
0200
0200
0000
0000
ENDCHAR

STARTCHAR gly232
ENCODING 232
SWIDTH 480 0
DWIDTH 11 0
BBX 11 22 0 -2
BITMAP
0000
0000
3E00
1200
1000
1C00
1000
1000
1200
3E00
0000
0000
0300
0480
0480
0300
0480
0480
0480
0300
0000
0000
ENDCHAR

STARTCHAR gly233
ENCODING 233
SWIDTH 480 0
DWIDTH 11 0
BBX 11 22 0 -2
BITMAP
0000
0000
3E00
1200
1000
1C00
1000
1000
1200
3E00
0000
0000
0300
0480
0480
0480
0380
0080
0480
0300
0000
0000
ENDCHAR

STARTCHAR gly234
ENCODING 234
SWIDTH 480 0
DWIDTH 11 0
BBX 11 22 0 -2
BITMAP
0000
0000
3E00
1200
1000
1C00
1000
1000
1200
3E00
0000
0000
0300
0300
0300
0480
0480
0780
0480
0DC0
0000
0000
ENDCHAR

STARTCHAR gly235
ENCODING 235
SWIDTH 480 0
DWIDTH 11 0
BBX 11 22 0 -2
BITMAP
0000
0000
3E00
1200
1000
1C00
1000
1000
1200
3E00
0000
0000
0780
0240
0240
0380
0240
0240
0240
0780
0000
0000
ENDCHAR

STARTCHAR gly236
ENCODING 236
SWIDTH 480 0
DWIDTH 11 0
BBX 11 22 0 -2
BITMAP
0000
0000
3E00
1200
1000
1C00
1000
1000
1200
3E00
0000
0000
0380
0480
0480
0400
0400
0480
0480
0300
0000
0000
ENDCHAR

STARTCHAR gly237
ENCODING 237
SWIDTH 480 0
DWIDTH 11 0
BBX 11 22 0 -2
BITMAP
0000
0000
3E00
1200
1000
1C00
1000
1000
1200
3E00
0000
0000
0780
0240
0240
0240
0240
0240
0240
0780
0000
0000
ENDCHAR

STARTCHAR gly238
ENCODING 238
SWIDTH 480 0
DWIDTH 11 0
BBX 11 22 0 -2
BITMAP
0000
0000
3E00
1200
1000
1C00
1000
1000
1200
3E00
0000
0000
07C0
0240
0200
0380
0200
0200
0240
07C0
0000
0000
ENDCHAR

STARTCHAR gly239
ENCODING 239
SWIDTH 480 0
DWIDTH 11 0
BBX 11 22 0 -2
BITMAP
0000
0000
3E00
1200
1000
1C00
1000
1000
1200
3E00
0000
0000
07C0
0240
0200
0380
0200
0200
0200
0700
0000
0000
ENDCHAR

STARTCHAR gly240
ENCODING 240
SWIDTH 480 0
DWIDTH 11 0
BBX 11 22 0 -2
BITMAP
0000
0000
3E00
1200
1000
1C00
1000
1000
1000
3800
0000
0000
0300
0480
0480
0480
0480
0480
0480
0300
0000
0000
ENDCHAR

STARTCHAR gly241
ENCODING 241
SWIDTH 480 0
DWIDTH 11 0
BBX 11 22 0 -2
BITMAP
0000
0000
3E00
1200
1000
1C00
1000
1000
1000
3800
0000
0000
0100
0300
0100
0100
0100
0100
0100
0380
0000
0000
ENDCHAR

STARTCHAR gly242
ENCODING 242
SWIDTH 480 0
DWIDTH 11 0
BBX 11 22 0 -2
BITMAP
0000
0000
3E00
1200
1000
1C00
1000
1000
1000
3800
0000
0000
0300
0480
0480
0080
0100
0200
0480
0780
0000
0000
ENDCHAR

STARTCHAR gly243
ENCODING 243
SWIDTH 480 0
DWIDTH 11 0
BBX 11 22 0 -2
BITMAP
0000
0000
3E00
1200
1000
1C00
1000
1000
1000
3800
0000
0000
0300
0480
0080
0300
0080
0480
0480
0300
0000
0000
ENDCHAR

STARTCHAR gly244
ENCODING 244
SWIDTH 480 0
DWIDTH 11 0
BBX 11 22 0 -2
BITMAP
0000
0000
3E00
1200
1000
1C00
1000
1000
1000
3800
0000
0000
0080
0180
0180
0280
0280
07C0
0080
01C0
0000
0000
ENDCHAR

STARTCHAR gly245
ENCODING 245
SWIDTH 480 0
DWIDTH 11 0
BBX 11 22 0 -2
BITMAP
0000
0000
3E00
1200
1000
1C00
1000
1000
1000
3800
0000
0000
0780
0400
0400
0700
0480
0080
0480
0300
0000
0000
ENDCHAR

STARTCHAR gly246
ENCODING 246
SWIDTH 480 0
DWIDTH 11 0
BBX 11 22 0 -2
BITMAP
0000
0000
3E00
1200
1000
1C00
1000
1000
1000
3800
0000
0000
0300
0580
0400
0700
0480
0480
0480
0300
0000
0000
ENDCHAR

STARTCHAR gly247
ENCODING 247
SWIDTH 480 0
DWIDTH 11 0
BBX 11 22 0 -2
BITMAP
0000
0000
3E00
1200
1000
1C00
1000
1000
1000
3800
0000
0000
0780
0480
0100
0100
0200
0200
0200
0200
0000
0000
ENDCHAR

STARTCHAR gly248
ENCODING 248
SWIDTH 480 0
DWIDTH 11 0
BBX 11 22 0 -2
BITMAP
0000
0000
3E00
1200
1000
1C00
1000
1000
1000
3800
0000
0000
0300
0480
0480
0300
0480
0480
0480
0300
0000
0000
ENDCHAR

STARTCHAR gly249
ENCODING 249
SWIDTH 480 0
DWIDTH 11 0
BBX 11 22 0 -2
BITMAP
0000
0000
3E00
1200
1000
1C00
1000
1000
1000
3800
0000
0000
0300
0480
0480
0480
0380
0080
0480
0300
0000
0000
ENDCHAR

STARTCHAR gly250
ENCODING 250
SWIDTH 480 0
DWIDTH 11 0
BBX 11 22 0 -2
BITMAP
0000
0000
3E00
1200
1000
1C00
1000
1000
1000
3800
0000
0000
0300
0300
0300
0480
0480
0780
0480
0DC0
0000
0000
ENDCHAR

STARTCHAR gly251
ENCODING 251
SWIDTH 480 0
DWIDTH 11 0
BBX 11 22 0 -2
BITMAP
0000
0000
3E00
1200
1000
1C00
1000
1000
1000
3800
0000
0000
0780
0240
0240
0380
0240
0240
0240
0780
0000
0000
ENDCHAR

STARTCHAR gly252
ENCODING 252
SWIDTH 480 0
DWIDTH 11 0
BBX 11 22 0 -2
BITMAP
0000
0000
3E00
1200
1000
1C00
1000
1000
1000
3800
0000
0000
0380
0480
0480
0400
0400
0480
0480
0300
0000
0000
ENDCHAR

STARTCHAR gly253
ENCODING 253
SWIDTH 480 0
DWIDTH 11 0
BBX 11 22 0 -2
BITMAP
0000
0000
3E00
1200
1000
1C00
1000
1000
1000
3800
0000
0000
0780
0240
0240
0240
0240
0240
0240
0780
0000
0000
ENDCHAR

STARTCHAR gly254
ENCODING 254
SWIDTH 480 0
DWIDTH 11 0
BBX 11 22 0 -2
BITMAP
0000
0000
3E00
1200
1000
1C00
1000
1000
1000
3800
0000
0000
07C0
0240
0200
0380
0200
0200
0240
07C0
0000
0000
ENDCHAR

STARTCHAR gly255
ENCODING 255
SWIDTH 480 0
DWIDTH 11 0
BBX 11 22 0 -2
BITMAP
0000
0000
3E00
1200
1000
1C00
1000
1000
1000
3800
0000
0000
07C0
0240
0200
0380
0200
0200
0200
0700
0000
0000
ENDCHAR
ENDFONT
